<?xml version="1.0" encoding="UTF-8" standalone="no"?>
<svg
   xmlns:dc="http://purl.org/dc/elements/1.1/"
   xmlns:cc="http://creativecommons.org/ns#"
   xmlns:rdf="http://www.w3.org/1999/02/22-rdf-syntax-ns#"
   xmlns:svg="http://www.w3.org/2000/svg"
   xmlns="http://www.w3.org/2000/svg"
   id="svg41"
   xml:space="preserve"
   style="enable-background:new 0 0 1400 980;"
   viewBox="0 0 1400 980"
   y="0px"
   x="0px"
   version="1.1"><metadata
   id="metadata47"><rdf:RDF><cc:Work
       rdf:about=""><dc:format>image/svg+xml</dc:format><dc:type
         rdf:resource="http://purl.org/dc/dcmitype/StillImage" /></cc:Work></rdf:RDF></metadata><defs
   id="defs45" />
<style
   id="style2"
   type="text/css">
	.st0{fill:url(#XMLID_28_);}
	.st1{fill:#020202;}
</style>
<g
   id="Layer_3">
	<linearGradient
   y2="-180.6089"
   x2="312.8238"
   y1="1160.6089"
   x1="1087.1763"
   gradientUnits="userSpaceOnUse"
   id="XMLID_28_">
		<stop
   id="stop4"
   style="stop-color:#FFFFFF"
   offset="3.231282e-002" />
		<stop
   id="stop6"
   style="stop-color:#F0F0F0"
   offset="0.1973" />
		<stop
   id="stop8"
   style="stop-color:#F1F2F2"
   offset="0.4745" />
		<stop
   id="stop10"
   style="stop-color:#D6D6D6"
   offset="1" />
	</linearGradient>
	<rect
   height="980"
   width="1400"
   class="st0"
   id="XMLID_17_" />
</g>
<g
   id="Layer_2">
	<path
   d="M0,107.7c0,0,35-44.2,74-107.7h6.5c0,0,0,23.5,13,0H131c0,0-26.7,153-59.3,247.7   S51.7,365,30.3,424.3s-8.7,39.3-30.3,86v-31.7c0,0,24.7-56.3,20.3-107.3c0,0-11,7.3-20.3,41.3v-36c0,0,10.3-15,22.3-64.3   s50-136.7,54-158.7S101,23,98.3,18.3c-2.7-4.7-24,14-50.7,65.3S0,174.3,0,174.3V107.7z"
   class="st1"
   id="XMLID_2_" />
	<path
   d="M0,608.3c0,0,45-29.3,65.5-128.3S111,232,131,168S170,29,168,0h55c0,0-47,85-78,249   S99,405,82,515S0,658,0,658V608.3z"
   class="st1"
   id="XMLID_4_" />
	<path
   d="M36,728c0,0,29-61,53-92s37-76,47-117s71-197,93-325S269,0,269,0h-28c0,0-27,177-66,317   s-63,212-83,271S48,626,36,728z"
   class="st1"
   id="XMLID_3_" />
	<path
   d="M31,773c0,0,37-23,65-57s28-29,28-29s13,87-72,102c0,0-37-26-52,22v35c0,0,28-41,36,5   c0,0,8,18-14,19l-22-7v26c0,0,18,10,0,41v33.5c0,0,19-31,19.5-54.5S46,878,46,878s30,80.5,52.5,102h39c0,0-82.9-105.2-76.5-150   c0,0,7.5-15,35-20.5s49.5-43.5,56.5-94s43-117.5,44.5-165s36-120,36-120s-1.3,135.8-10,244.5s10,161.3,10,161.3s-8.7-51.3-58-58.7   c-49.3-7.3,9.3,10,29.3,44.7c20,34.7,49.3,101.3,55.3,157.7h50c0,0-52.7-82.3-55.3-192.3c-2.7-110-2.7-129.7-2.7-129.7   s38.7,251.7,77.3,322h47.3c0,0-95.3-244.3-104-367c-8.7-122.7,4.7-219.3,22.7-268s59.3-188.7,57.3-227.3S376.3,0,376.3,0h-70   c0,0,1.3,127.7-23.3,227s-4.7,74-60,188.7s-70,198-82.7,213.3S45,730.3,31,773z"
   class="st1"
   id="XMLID_5_" />
	<path
   d="M446,0c0,0-49,190-79,322s-18,209,25,347s79,263,70,311h45c0,0,5-249-13-371s-56-142-23-237   c0,0-46.4,10-5,248c0,0,8,88-2,193c0,0-75-289-54-415c0,0-9.9-2-26,92S403,258,519,0H446z"
   class="st1"
   id="XMLID_6_" />
	<path
   d="M662,0c0,0-152,194-172,270s-73.4,111.3-55.3,184c0,0,12.3,62,6.3,91c0,0-11.4-65.5-28-103   s44-97,46-131S599,0,599,0H662z"
   class="st1"
   id="XMLID_8_" />
	<path
   d="M677,910c0,0-18-249,54-420c0,0,32-71,70-94c0,0-48,128-53,207s-17,182-19,190s-4,85-54,187h46   c0,0,49.7-118.1,44-282.3c0,0,4.7-112,50.7-248.7s90-275.3,90-275.3s-57.3,120.7-86,155.3c-28.7,34.7-30.7,20-57.3,46.7   C735.9,402.1,627,576,661.2,945.4c0.4,4.5,6.2,6.1,8.8,2.5C674.1,942.3,677.9,931.4,677,910z"
   class="st1"
   id="XMLID_7_" />
	<path
   d="M866.3,980c0,0,14.7-277,48-182.3c0,0,4,64-4,182.3H866.3z"
   class="st1"
   id="XMLID_10_" />
	<path
   d="M877,767c1.2-2.8-7.3-48,38.3-94c0,0,10.3-14.7,9-105.3c-1.3-90.7,161.3-250,152.7-199.3   S1006,556,966,601c-38.5,43.3-44.6,209.1,11.3,271.3c6.1,6.7,10.1,15.1,11.8,24c3.3,17.5,4.3,47-12.2,83.7h43.4   c0,0,35.3-70.3-13.3-192.3c-48.7-122,67.3-136.7,76.7-242.7c9.3-106,32.7-166.7,46.7-220.7s85.3-126,85.3-126s-42-40-110,80   c0,0-74,66.7-158,135.3s-46,196-78,254.7C837.7,727,848.3,835.7,877,767z"
   class="st1"
   id="XMLID_11_" />
	<path
   d="M562.1,980c0,0,67.9-202,44.9-372s15-271,15-271s-61,100-47,285c0,0-82.1-185.9,47-397.4   S823.1,0,823.1,0h-69c0,0-217,134.5-235.1,404.6c-18.1,270.1,79.1,213,56.6,363c-22.5,150-46.5,212.4-46.5,212.4H562.1z"
   class="st1"
   id="XMLID_12_" />
	<path
   d="M884.6,0c0,0-81,70.1-147,200.6s-72,46.5-97.5,207s-24,148.5-24,148.5s66-225,121.5-294   c55.5-69,147-236.2,217.5-262.1H884.6z"
   class="st1"
   id="XMLID_13_" />
	<path
   d="M1400,556.3c0,0-67,53.7-112,164.7s6,169-99,259h-32c0,0-4.7-97,58.7-226   c0,0-5.7-113.4,124.3-197.7c0,0,43-49.3,60-79.3V556.3z"
   class="st1"
   id="XMLID_14_" />
	<path
   d="M1400,724c0,0-1.2,1.6-3.4,4.5c-15.3,21.2-76.5,112.5-42.6,177.5c0,0-42.1,39-10.1,74h56.1V724z   "
   class="st1"
   id="XMLID_9_" />
	<path
   d="M1101,556.3c0,0,0,14.7,102-87.3s150-166,140-248c0,0-35,10-87,111c0,0-78,17-94,125   C1162,457,1096,505.6,1101,556.3z"
   class="st1"
   id="XMLID_15_" />
	<path
   d="M1002,0c0,0-166.4,167.2-186,288c0,0-40-62,105-226l34.1-62H1002z"
   class="st1"
   id="XMLID_16_" />
	<path
   d="M1163,0c0,0-89-2-169,169S857,355,877,395c0,0,106-93,141-160s95-196,155-191   c0,0-78,138-157,165l-9,32c0,0,124-26,189-173l31-68H1163z"
   class="st1"
   id="XMLID_18_" />
	<path
   d="M1338,0c0,0-49,19-94,164s-114,200-114,200s125-95,167-213S1400,0,1400,0H1338z"
   class="st1"
   id="XMLID_19_" />
	<path
   d="M1400,21c0,0-87,84-71,187c0,0,44.5-35,54-104s17-57,17-57V21z"
   class="st1"
   id="XMLID_20_" />
	<path
   d="M1294,890c0,0-33,28-29,59c0,0-27.7,8-49.3,31h78.3c0,0,9.8-20.5-4-45S1294,890,1294,890z"
   class="st1"
   id="XMLID_21_" />
	<path
   d="M1149.7,616.3c12.7-12,58.7-11.3,61.3-71.3c0,0-27.3,10-44,46.7L1149.7,616.3z"
   class="st1"
   id="XMLID_23_" />
	<path
   d="M1081.7,745c9,1.4,42-12,42.7-52.7C1125,651.7,1043.7,739,1081.7,745z"
   class="st1"
   id="XMLID_22_" />
	<path
   d="M1304.3,521c0,0,74.7-53.3,95.7-113.3V473C1400,473,1354.3,513,1304.3,521z"
   class="st1"
   id="XMLID_24_" />
	<path
   d="M1383.5,272.5l16.5-28V153C1400,153,1351.5,290.5,1383.5,272.5z"
   class="st1"
   id="XMLID_26_" />
	<path
   d="M2.5,980c3-2,25.5-39,47.5-16.5S67,980,67,980H46.5c0,0-11.5-20-26.5,0H2.5z"
   class="st1"
   id="XMLID_25_" />
	<path
   d="M1185,719c0,0-72,145-80,261h-45C1060,980,1206,597,1185,719z"
   class="st1"
   id="XMLID_1_" />
</g>
</svg>